<svg id="visual" viewBox="0 0 3840 400" width="100%" xmlns="http://www.w3.org/2000/svg" xmlns:xlink="http://www.w3.org/1999/xlink" version="1.1"><path d="M0 245L106.7 260.7C213.3 276.3 426.7 307.7 640 291.5C853.3 275.3 1066.7 211.7 1280 210.7C1493.3 209.7 1706.7 271.3 1920 311.7C2133.3 352 2346.7 371 2560 321.7C2773.3 272.3 2986.7 154.7 3200 116.8C3413.3 79 3626.7 121 3733.3 142L3840 163L3840 401L3733.3 401C3626.7 401 3413.3 401 3200 401C2986.7 401 2773.3 401 2560 401C2346.7 401 2133.3 401 1920 401C1706.7 401 1493.3 401 1280 401C1066.7 401 853.3 401 640 401C426.7 401 213.3 401 106.7 401L0 401Z" fill="#0066FF" stroke-linecap="round" stroke-linejoin="miter"></path>
</svg>