<svg id="visual" viewBox="0 0 3840 400" width="100%" xmlns="http://www.w3.org/2000/svg" xmlns:xlink="http://www.w3.org/1999/xlink" version="1.1">
<path d="M0 275L167 275L167 154L334 154L334 217L501 217L501 347L668 347L668 346L835 346L835 255L1002 255L1002 194L1169 194L1169 286L1336 286L1336 161L1503 161L1503 44L1670 44L1670 350L1837 350L1837 341L2003 341L2003 352L2170 352L2170 134L2337 134L2337 56L2504 56L2504 251L2671 251L2671 319L2838 319L2838 126L3005 126L3005 332L3172 332L3172 137L3339 137L3339 209L3506 209L3506 49L3673 49L3673 144L3840 144L3840 82L3840 401L3840 401L3673 401L3673 401L3506 401L3506 401L3339 401L3339 401L3172 401L3172 401L3005 401L3005 401L2838 401L2838 401L2671 401L2671 401L2504 401L2504 401L2337 401L2337 401L2170 401L2170 401L2003 401L2003 401L1837 401L1837 401L1670 401L1670 401L1503 401L1503 401L1336 401L1336 401L1169 401L1169 401L1002 401L1002 401L835 401L835 401L668 401L668 401L501 401L501 401L334 401L334 401L167 401L167 401L0 401Z" fill="#9900FF"></path></svg>